<mxfile host="app.diagrams.net" agent="Mozilla/5.0 (Windows NT 10.0; Win64; x64) AppleWebKit/537.36 (KHTML, like Gecko) Chrome/132.0.0.0 Safari/537.36" version="26.0.11">
  <diagram id="NV9wXAJnggo5N1RwPtox" name="Page-1">
    <mxGraphModel dx="2403" dy="1714" grid="1" gridSize="10" guides="1" tooltips="1" connect="1" arrows="1" fold="1" page="1" pageScale="1" pageWidth="850" pageHeight="1100" math="0" shadow="0">
      <root>
        <mxCell id="0" />
        <mxCell id="1" parent="0" />
        <mxCell id="k-hW8yHvfsRMofxT3O1r-17" value="User" style="rounded=0;whiteSpace=wrap;html=1;" vertex="1" parent="1">
          <mxGeometry x="350" y="720" width="120" height="60" as="geometry" />
        </mxCell>
        <mxCell id="k-hW8yHvfsRMofxT3O1r-18" value="d" style="ellipse;whiteSpace=wrap;html=1;aspect=fixed;" vertex="1" parent="1">
          <mxGeometry x="390" y="630" width="40" height="40" as="geometry" />
        </mxCell>
        <mxCell id="k-hW8yHvfsRMofxT3O1r-19" value="" style="endArrow=none;html=1;rounded=0;entryX=0.5;entryY=1;entryDx=0;entryDy=0;" edge="1" parent="1" target="k-hW8yHvfsRMofxT3O1r-18">
          <mxGeometry width="50" height="50" relative="1" as="geometry">
            <mxPoint x="410" y="720" as="sourcePoint" />
            <mxPoint x="460" y="670" as="targetPoint" />
          </mxGeometry>
        </mxCell>
        <mxCell id="k-hW8yHvfsRMofxT3O1r-22" value="Admin" style="rounded=0;whiteSpace=wrap;html=1;" vertex="1" parent="1">
          <mxGeometry x="90" y="550" width="100" height="60" as="geometry" />
        </mxCell>
        <mxCell id="k-hW8yHvfsRMofxT3O1r-23" value="Teacher" style="rounded=0;whiteSpace=wrap;html=1;" vertex="1" parent="1">
          <mxGeometry x="260" y="550" width="100" height="60" as="geometry" />
        </mxCell>
        <mxCell id="k-hW8yHvfsRMofxT3O1r-24" value="Card Marker" style="rounded=0;whiteSpace=wrap;html=1;" vertex="1" parent="1">
          <mxGeometry x="440" y="550" width="100" height="60" as="geometry" />
        </mxCell>
        <mxCell id="k-hW8yHvfsRMofxT3O1r-26" value="Manage" style="rhombus;whiteSpace=wrap;html=1;" vertex="1" parent="1">
          <mxGeometry x="100" y="660" width="80" height="80" as="geometry" />
        </mxCell>
        <mxCell id="k-hW8yHvfsRMofxT3O1r-28" value="" style="endArrow=none;html=1;rounded=0;entryX=0;entryY=0.5;entryDx=0;entryDy=0;exitX=0.5;exitY=1;exitDx=0;exitDy=0;" edge="1" parent="1" source="k-hW8yHvfsRMofxT3O1r-26" target="k-hW8yHvfsRMofxT3O1r-17">
          <mxGeometry width="50" height="50" relative="1" as="geometry">
            <mxPoint x="180" y="700" as="sourcePoint" />
            <mxPoint x="230" y="650" as="targetPoint" />
            <Array as="points">
              <mxPoint x="140" y="780" />
              <mxPoint x="250" y="780" />
              <mxPoint x="250" y="750" />
            </Array>
          </mxGeometry>
        </mxCell>
        <mxCell id="k-hW8yHvfsRMofxT3O1r-30" value="" style="endArrow=none;html=1;rounded=0;exitX=0.5;exitY=1;exitDx=0;exitDy=0;entryX=0;entryY=0.5;entryDx=0;entryDy=0;" edge="1" parent="1" source="k-hW8yHvfsRMofxT3O1r-23" target="k-hW8yHvfsRMofxT3O1r-18">
          <mxGeometry width="50" height="50" relative="1" as="geometry">
            <mxPoint x="380" y="520" as="sourcePoint" />
            <mxPoint x="430" y="470" as="targetPoint" />
          </mxGeometry>
        </mxCell>
        <mxCell id="k-hW8yHvfsRMofxT3O1r-31" value="" style="endArrow=none;html=1;rounded=0;exitX=0.5;exitY=1;exitDx=0;exitDy=0;entryX=1;entryY=0;entryDx=0;entryDy=0;" edge="1" parent="1" source="k-hW8yHvfsRMofxT3O1r-24" target="k-hW8yHvfsRMofxT3O1r-18">
          <mxGeometry width="50" height="50" relative="1" as="geometry">
            <mxPoint x="320" y="620" as="sourcePoint" />
            <mxPoint x="400" y="660" as="targetPoint" />
          </mxGeometry>
        </mxCell>
        <mxCell id="k-hW8yHvfsRMofxT3O1r-33" value="" style="endArrow=none;html=1;rounded=0;exitX=0.6;exitY=1.033;exitDx=0;exitDy=0;entryX=0;entryY=1;entryDx=0;entryDy=0;exitPerimeter=0;" edge="1" parent="1" source="k-hW8yHvfsRMofxT3O1r-22" target="k-hW8yHvfsRMofxT3O1r-18">
          <mxGeometry width="50" height="50" relative="1" as="geometry">
            <mxPoint x="340" y="640" as="sourcePoint" />
            <mxPoint x="420" y="680" as="targetPoint" />
          </mxGeometry>
        </mxCell>
        <mxCell id="k-hW8yHvfsRMofxT3O1r-34" value="user_id" style="ellipse;whiteSpace=wrap;html=1;" vertex="1" parent="1">
          <mxGeometry x="200" y="790" width="90" height="40" as="geometry" />
        </mxCell>
        <mxCell id="k-hW8yHvfsRMofxT3O1r-35" value="fname" style="ellipse;whiteSpace=wrap;html=1;" vertex="1" parent="1">
          <mxGeometry x="240" y="830" width="90" height="40" as="geometry" />
        </mxCell>
        <mxCell id="k-hW8yHvfsRMofxT3O1r-36" value="email" style="ellipse;whiteSpace=wrap;html=1;" vertex="1" parent="1">
          <mxGeometry x="365" y="890" width="90" height="40" as="geometry" />
        </mxCell>
        <mxCell id="k-hW8yHvfsRMofxT3O1r-37" value="lname" style="ellipse;whiteSpace=wrap;html=1;" vertex="1" parent="1">
          <mxGeometry x="310" y="850" width="90" height="40" as="geometry" />
        </mxCell>
        <mxCell id="k-hW8yHvfsRMofxT3O1r-38" value="password" style="ellipse;whiteSpace=wrap;html=1;" vertex="1" parent="1">
          <mxGeometry x="410" y="850" width="90" height="40" as="geometry" />
        </mxCell>
        <mxCell id="k-hW8yHvfsRMofxT3O1r-39" style="edgeStyle=orthogonalEdgeStyle;rounded=0;orthogonalLoop=1;jettySize=auto;html=1;exitX=0.5;exitY=1;exitDx=0;exitDy=0;" edge="1" parent="1" source="k-hW8yHvfsRMofxT3O1r-35" target="k-hW8yHvfsRMofxT3O1r-35">
          <mxGeometry relative="1" as="geometry" />
        </mxCell>
        <mxCell id="k-hW8yHvfsRMofxT3O1r-40" value="NIC" style="ellipse;whiteSpace=wrap;html=1;" vertex="1" parent="1">
          <mxGeometry x="470" y="820" width="90" height="40" as="geometry" />
        </mxCell>
        <mxCell id="k-hW8yHvfsRMofxT3O1r-41" value="profile_pic" style="ellipse;whiteSpace=wrap;html=1;" vertex="1" parent="1">
          <mxGeometry x="540" y="790" width="90" height="40" as="geometry" />
        </mxCell>
        <mxCell id="k-hW8yHvfsRMofxT3O1r-42" value="contact" style="ellipse;whiteSpace=wrap;html=1;" vertex="1" parent="1">
          <mxGeometry x="540" y="740" width="90" height="40" as="geometry" />
        </mxCell>
        <mxCell id="k-hW8yHvfsRMofxT3O1r-43" value="" style="endArrow=none;html=1;rounded=0;exitX=1;exitY=0;exitDx=0;exitDy=0;entryX=0;entryY=0.75;entryDx=0;entryDy=0;" edge="1" parent="1" source="k-hW8yHvfsRMofxT3O1r-34" target="k-hW8yHvfsRMofxT3O1r-17">
          <mxGeometry width="50" height="50" relative="1" as="geometry">
            <mxPoint x="380" y="790" as="sourcePoint" />
            <mxPoint x="430" y="740" as="targetPoint" />
          </mxGeometry>
        </mxCell>
        <mxCell id="k-hW8yHvfsRMofxT3O1r-44" value="" style="endArrow=none;html=1;rounded=0;exitX=0.667;exitY=0;exitDx=0;exitDy=0;entryX=0.125;entryY=0.967;entryDx=0;entryDy=0;exitPerimeter=0;entryPerimeter=0;" edge="1" parent="1" source="k-hW8yHvfsRMofxT3O1r-35" target="k-hW8yHvfsRMofxT3O1r-17">
          <mxGeometry width="50" height="50" relative="1" as="geometry">
            <mxPoint x="267" y="816" as="sourcePoint" />
            <mxPoint x="360" y="775" as="targetPoint" />
          </mxGeometry>
        </mxCell>
        <mxCell id="k-hW8yHvfsRMofxT3O1r-45" value="" style="endArrow=none;html=1;rounded=0;entryX=0.25;entryY=1;entryDx=0;entryDy=0;" edge="1" parent="1" target="k-hW8yHvfsRMofxT3O1r-17">
          <mxGeometry width="50" height="50" relative="1" as="geometry">
            <mxPoint x="350" y="870" as="sourcePoint" />
            <mxPoint x="370" y="785" as="targetPoint" />
          </mxGeometry>
        </mxCell>
        <mxCell id="k-hW8yHvfsRMofxT3O1r-46" value="" style="endArrow=none;html=1;rounded=0;exitX=0.4;exitY=0.05;exitDx=0;exitDy=0;entryX=0.417;entryY=1.05;entryDx=0;entryDy=0;entryPerimeter=0;exitPerimeter=0;" edge="1" parent="1" source="k-hW8yHvfsRMofxT3O1r-36" target="k-hW8yHvfsRMofxT3O1r-17">
          <mxGeometry width="50" height="50" relative="1" as="geometry">
            <mxPoint x="287" y="836" as="sourcePoint" />
            <mxPoint x="380" y="795" as="targetPoint" />
          </mxGeometry>
        </mxCell>
        <mxCell id="k-hW8yHvfsRMofxT3O1r-47" value="" style="endArrow=none;html=1;rounded=0;exitX=0.311;exitY=0.075;exitDx=0;exitDy=0;entryX=0.675;entryY=1.033;entryDx=0;entryDy=0;entryPerimeter=0;exitPerimeter=0;" edge="1" parent="1" source="k-hW8yHvfsRMofxT3O1r-38" target="k-hW8yHvfsRMofxT3O1r-17">
          <mxGeometry width="50" height="50" relative="1" as="geometry">
            <mxPoint x="297" y="846" as="sourcePoint" />
            <mxPoint x="390" y="805" as="targetPoint" />
          </mxGeometry>
        </mxCell>
        <mxCell id="k-hW8yHvfsRMofxT3O1r-48" value="" style="endArrow=none;html=1;rounded=0;exitX=0;exitY=0;exitDx=0;exitDy=0;entryX=1;entryY=1;entryDx=0;entryDy=0;" edge="1" parent="1" source="k-hW8yHvfsRMofxT3O1r-40" target="k-hW8yHvfsRMofxT3O1r-17">
          <mxGeometry width="50" height="50" relative="1" as="geometry">
            <mxPoint x="307" y="856" as="sourcePoint" />
            <mxPoint x="400" y="815" as="targetPoint" />
          </mxGeometry>
        </mxCell>
        <mxCell id="k-hW8yHvfsRMofxT3O1r-49" value="" style="endArrow=none;html=1;rounded=0;exitX=0;exitY=0.5;exitDx=0;exitDy=0;entryX=1;entryY=0.5;entryDx=0;entryDy=0;" edge="1" parent="1" source="k-hW8yHvfsRMofxT3O1r-41" target="k-hW8yHvfsRMofxT3O1r-17">
          <mxGeometry width="50" height="50" relative="1" as="geometry">
            <mxPoint x="317" y="866" as="sourcePoint" />
            <mxPoint x="410" y="825" as="targetPoint" />
          </mxGeometry>
        </mxCell>
        <mxCell id="k-hW8yHvfsRMofxT3O1r-50" value="" style="endArrow=none;html=1;rounded=0;exitX=0;exitY=0.5;exitDx=0;exitDy=0;entryX=1;entryY=0.25;entryDx=0;entryDy=0;" edge="1" parent="1" source="k-hW8yHvfsRMofxT3O1r-42" target="k-hW8yHvfsRMofxT3O1r-17">
          <mxGeometry width="50" height="50" relative="1" as="geometry">
            <mxPoint x="327" y="876" as="sourcePoint" />
            <mxPoint x="420" y="835" as="targetPoint" />
          </mxGeometry>
        </mxCell>
        <mxCell id="k-hW8yHvfsRMofxT3O1r-51" value="Manage" style="rhombus;whiteSpace=wrap;html=1;" vertex="1" parent="1">
          <mxGeometry x="-100" y="540" width="80" height="80" as="geometry" />
        </mxCell>
        <mxCell id="k-hW8yHvfsRMofxT3O1r-52" value="Subject" style="rounded=0;whiteSpace=wrap;html=1;" vertex="1" parent="1">
          <mxGeometry x="-160" y="420" width="120" height="60" as="geometry" />
        </mxCell>
        <mxCell id="k-hW8yHvfsRMofxT3O1r-53" value="" style="endArrow=none;html=1;rounded=0;exitX=0.5;exitY=1;exitDx=0;exitDy=0;entryX=0;entryY=0.5;entryDx=0;entryDy=0;" edge="1" parent="1" source="k-hW8yHvfsRMofxT3O1r-52" target="k-hW8yHvfsRMofxT3O1r-51">
          <mxGeometry width="50" height="50" relative="1" as="geometry">
            <mxPoint x="90" y="480" as="sourcePoint" />
            <mxPoint x="140" y="430" as="targetPoint" />
          </mxGeometry>
        </mxCell>
        <mxCell id="k-hW8yHvfsRMofxT3O1r-54" value="" style="endArrow=none;html=1;rounded=0;exitX=0;exitY=0.5;exitDx=0;exitDy=0;entryX=1;entryY=0.5;entryDx=0;entryDy=0;" edge="1" parent="1" source="k-hW8yHvfsRMofxT3O1r-22" target="k-hW8yHvfsRMofxT3O1r-51">
          <mxGeometry width="50" height="50" relative="1" as="geometry">
            <mxPoint x="-30" y="460" as="sourcePoint" />
            <mxPoint x="110" y="460" as="targetPoint" />
          </mxGeometry>
        </mxCell>
        <mxCell id="k-hW8yHvfsRMofxT3O1r-56" value="Grade" style="rounded=0;whiteSpace=wrap;html=1;" vertex="1" parent="1">
          <mxGeometry x="-160" y="310" width="120" height="60" as="geometry" />
        </mxCell>
        <mxCell id="k-hW8yHvfsRMofxT3O1r-58" value="Attendance_Report" style="rounded=0;whiteSpace=wrap;html=1;" vertex="1" parent="1">
          <mxGeometry x="-160" y="200" width="120" height="60" as="geometry" />
        </mxCell>
        <mxCell id="k-hW8yHvfsRMofxT3O1r-60" value="Manage" style="rhombus;whiteSpace=wrap;html=1;" vertex="1" parent="1">
          <mxGeometry x="20" y="390" width="80" height="80" as="geometry" />
        </mxCell>
        <mxCell id="k-hW8yHvfsRMofxT3O1r-61" value="" style="endArrow=none;html=1;rounded=0;exitX=0.5;exitY=1;exitDx=0;exitDy=0;entryX=0.5;entryY=0;entryDx=0;entryDy=0;" edge="1" parent="1" source="k-hW8yHvfsRMofxT3O1r-60" target="k-hW8yHvfsRMofxT3O1r-22">
          <mxGeometry width="50" height="50" relative="1" as="geometry">
            <mxPoint x="90" y="480" as="sourcePoint" />
            <mxPoint x="140" y="430" as="targetPoint" />
            <Array as="points">
              <mxPoint x="60" y="490" />
              <mxPoint x="140" y="490" />
            </Array>
          </mxGeometry>
        </mxCell>
        <mxCell id="k-hW8yHvfsRMofxT3O1r-62" value="" style="endArrow=none;html=1;rounded=0;entryX=1;entryY=0.5;entryDx=0;entryDy=0;exitX=0.5;exitY=0;exitDx=0;exitDy=0;" edge="1" parent="1" source="k-hW8yHvfsRMofxT3O1r-60" target="k-hW8yHvfsRMofxT3O1r-56">
          <mxGeometry width="50" height="50" relative="1" as="geometry">
            <mxPoint x="90" y="480" as="sourcePoint" />
            <mxPoint x="140" y="430" as="targetPoint" />
            <Array as="points">
              <mxPoint x="60" y="340" />
            </Array>
          </mxGeometry>
        </mxCell>
        <mxCell id="k-hW8yHvfsRMofxT3O1r-63" value="Manage" style="rhombus;whiteSpace=wrap;html=1;" vertex="1" parent="1">
          <mxGeometry x="20" y="190" width="80" height="80" as="geometry" />
        </mxCell>
        <mxCell id="k-hW8yHvfsRMofxT3O1r-64" value="" style="endArrow=none;html=1;rounded=0;exitX=1;exitY=0.5;exitDx=0;exitDy=0;entryX=0;entryY=0.5;entryDx=0;entryDy=0;" edge="1" parent="1" source="k-hW8yHvfsRMofxT3O1r-58" target="k-hW8yHvfsRMofxT3O1r-63">
          <mxGeometry width="50" height="50" relative="1" as="geometry">
            <mxPoint x="90" y="480" as="sourcePoint" />
            <mxPoint x="140" y="430" as="targetPoint" />
          </mxGeometry>
        </mxCell>
        <mxCell id="k-hW8yHvfsRMofxT3O1r-65" value="" style="endArrow=none;html=1;rounded=0;exitX=1;exitY=0.5;exitDx=0;exitDy=0;entryX=0.63;entryY=-0.017;entryDx=0;entryDy=0;entryPerimeter=0;" edge="1" parent="1" source="k-hW8yHvfsRMofxT3O1r-63" target="k-hW8yHvfsRMofxT3O1r-22">
          <mxGeometry width="50" height="50" relative="1" as="geometry">
            <mxPoint x="90" y="480" as="sourcePoint" />
            <mxPoint x="150" y="540" as="targetPoint" />
            <Array as="points">
              <mxPoint x="153" y="230" />
            </Array>
          </mxGeometry>
        </mxCell>
        <mxCell id="k-hW8yHvfsRMofxT3O1r-66" value="select" style="rhombus;whiteSpace=wrap;html=1;" vertex="1" parent="1">
          <mxGeometry x="440" y="420" width="80" height="80" as="geometry" />
        </mxCell>
        <mxCell id="k-hW8yHvfsRMofxT3O1r-68" value="" style="endArrow=none;html=1;rounded=0;entryX=0.5;entryY=1;entryDx=0;entryDy=0;exitX=0.5;exitY=0;exitDx=0;exitDy=0;" edge="1" parent="1" source="k-hW8yHvfsRMofxT3O1r-24" target="k-hW8yHvfsRMofxT3O1r-66">
          <mxGeometry width="50" height="50" relative="1" as="geometry">
            <mxPoint x="190" y="490" as="sourcePoint" />
            <mxPoint x="240" y="440" as="targetPoint" />
          </mxGeometry>
        </mxCell>
        <mxCell id="k-hW8yHvfsRMofxT3O1r-69" value="role" style="ellipse;whiteSpace=wrap;html=1;" vertex="1" parent="1">
          <mxGeometry x="570" y="700" width="90" height="40" as="geometry" />
        </mxCell>
        <mxCell id="k-hW8yHvfsRMofxT3O1r-70" value="" style="endArrow=none;html=1;rounded=0;exitX=1;exitY=0.25;exitDx=0;exitDy=0;entryX=0;entryY=0.5;entryDx=0;entryDy=0;" edge="1" parent="1" source="k-hW8yHvfsRMofxT3O1r-17" target="k-hW8yHvfsRMofxT3O1r-69">
          <mxGeometry width="50" height="50" relative="1" as="geometry">
            <mxPoint x="440" y="850" as="sourcePoint" />
            <mxPoint x="490" y="800" as="targetPoint" />
          </mxGeometry>
        </mxCell>
        <mxCell id="k-hW8yHvfsRMofxT3O1r-71" value="grade_id" style="ellipse;whiteSpace=wrap;html=1;" vertex="1" parent="1">
          <mxGeometry x="-310" y="300" width="90" height="40" as="geometry" />
        </mxCell>
        <mxCell id="k-hW8yHvfsRMofxT3O1r-72" value="grade_name" style="ellipse;whiteSpace=wrap;html=1;" vertex="1" parent="1">
          <mxGeometry x="-310" y="350" width="90" height="40" as="geometry" />
        </mxCell>
        <mxCell id="k-hW8yHvfsRMofxT3O1r-73" value="" style="endArrow=none;html=1;rounded=0;exitX=1;exitY=0.5;exitDx=0;exitDy=0;entryX=0;entryY=0.25;entryDx=0;entryDy=0;" edge="1" parent="1" source="k-hW8yHvfsRMofxT3O1r-71" target="k-hW8yHvfsRMofxT3O1r-56">
          <mxGeometry width="50" height="50" relative="1" as="geometry">
            <mxPoint x="-90" y="360" as="sourcePoint" />
            <mxPoint x="-40" y="310" as="targetPoint" />
          </mxGeometry>
        </mxCell>
        <mxCell id="k-hW8yHvfsRMofxT3O1r-74" value="" style="endArrow=none;html=1;rounded=0;exitX=1;exitY=0.5;exitDx=0;exitDy=0;" edge="1" parent="1" source="k-hW8yHvfsRMofxT3O1r-72">
          <mxGeometry width="50" height="50" relative="1" as="geometry">
            <mxPoint x="-260" y="315" as="sourcePoint" />
            <mxPoint x="-160" y="340" as="targetPoint" />
          </mxGeometry>
        </mxCell>
        <mxCell id="k-hW8yHvfsRMofxT3O1r-75" value="subject_id" style="ellipse;whiteSpace=wrap;html=1;" vertex="1" parent="1">
          <mxGeometry x="-300" y="420" width="90" height="45" as="geometry" />
        </mxCell>
        <mxCell id="k-hW8yHvfsRMofxT3O1r-76" value="subject_name" style="ellipse;whiteSpace=wrap;html=1;" vertex="1" parent="1">
          <mxGeometry x="-300" y="470" width="90" height="40" as="geometry" />
        </mxCell>
        <mxCell id="k-hW8yHvfsRMofxT3O1r-77" value="" style="endArrow=none;html=1;rounded=0;exitX=1;exitY=0.5;exitDx=0;exitDy=0;entryX=0;entryY=0.25;entryDx=0;entryDy=0;" edge="1" parent="1" source="k-hW8yHvfsRMofxT3O1r-75" target="k-hW8yHvfsRMofxT3O1r-52">
          <mxGeometry width="50" height="50" relative="1" as="geometry">
            <mxPoint x="-90" y="410" as="sourcePoint" />
            <mxPoint x="-40" y="360" as="targetPoint" />
          </mxGeometry>
        </mxCell>
        <mxCell id="k-hW8yHvfsRMofxT3O1r-78" value="" style="endArrow=none;html=1;rounded=0;exitX=1;exitY=0.5;exitDx=0;exitDy=0;entryX=0;entryY=0.667;entryDx=0;entryDy=0;entryPerimeter=0;" edge="1" parent="1" source="k-hW8yHvfsRMofxT3O1r-76" target="k-hW8yHvfsRMofxT3O1r-52">
          <mxGeometry width="50" height="50" relative="1" as="geometry">
            <mxPoint x="-220" y="443" as="sourcePoint" />
            <mxPoint x="-150" y="445" as="targetPoint" />
          </mxGeometry>
        </mxCell>
        <mxCell id="k-hW8yHvfsRMofxT3O1r-79" value="manage" style="rhombus;whiteSpace=wrap;html=1;" vertex="1" parent="1">
          <mxGeometry x="20" y="80" width="80" height="80" as="geometry" />
        </mxCell>
        <mxCell id="k-hW8yHvfsRMofxT3O1r-80" value="" style="endArrow=none;html=1;rounded=0;exitX=1;exitY=0.5;exitDx=0;exitDy=0;entryX=0.25;entryY=0;entryDx=0;entryDy=0;" edge="1" parent="1" source="k-hW8yHvfsRMofxT3O1r-79" target="k-hW8yHvfsRMofxT3O1r-24">
          <mxGeometry width="50" height="50" relative="1" as="geometry">
            <mxPoint x="170" y="230" as="sourcePoint" />
            <mxPoint x="300" y="290" as="targetPoint" />
            <Array as="points">
              <mxPoint x="220" y="120" />
            </Array>
          </mxGeometry>
        </mxCell>
        <mxCell id="k-hW8yHvfsRMofxT3O1r-81" value="" style="endArrow=none;html=1;rounded=0;entryX=0;entryY=0.5;entryDx=0;entryDy=0;exitX=0.5;exitY=0;exitDx=0;exitDy=0;" edge="1" parent="1" source="k-hW8yHvfsRMofxT3O1r-58" target="k-hW8yHvfsRMofxT3O1r-79">
          <mxGeometry width="50" height="50" relative="1" as="geometry">
            <mxPoint x="60" y="370" as="sourcePoint" />
            <mxPoint x="110" y="320" as="targetPoint" />
            <Array as="points">
              <mxPoint x="-100" y="120" />
            </Array>
          </mxGeometry>
        </mxCell>
        <mxCell id="k-hW8yHvfsRMofxT3O1r-83" value="report_id&lt;span style=&quot;color: rgba(0, 0, 0, 0); font-family: monospace; font-size: 0px; text-align: start; text-wrap-mode: nowrap;&quot;&gt;%3CmxGraphModel%3E%3Croot%3E%3CmxCell%20id%3D%220%22%2F%3E%3CmxCell%20id%3D%221%22%20parent%3D%220%22%2F%3E%3CmxCell%20id%3D%222%22%20value%3D%22grade_name%22%20style%3D%22ellipse%3BwhiteSpace%3Dwrap%3Bhtml%3D1%3B%22%20vertex%3D%221%22%20parent%3D%221%22%3E%3CmxGeometry%20x%3D%22-310%22%20y%3D%22350%22%20width%3D%2290%22%20height%3D%2240%22%20as%3D%22geometry%22%2F%3E%3C%2FmxCell%3E%3C%2Froot%3E%3C%2FmxGraphModel%3E&lt;/span&gt;" style="ellipse;whiteSpace=wrap;html=1;" vertex="1" parent="1">
          <mxGeometry x="-240" y="130" width="90" height="40" as="geometry" />
        </mxCell>
        <mxCell id="k-hW8yHvfsRMofxT3O1r-84" value="generated_by" style="ellipse;whiteSpace=wrap;html=1;" vertex="1" parent="1">
          <mxGeometry x="-310" y="160" width="90" height="40" as="geometry" />
        </mxCell>
        <mxCell id="k-hW8yHvfsRMofxT3O1r-85" value="date" style="ellipse;whiteSpace=wrap;html=1;" vertex="1" parent="1">
          <mxGeometry x="-330" y="200" width="90" height="40" as="geometry" />
        </mxCell>
        <mxCell id="k-hW8yHvfsRMofxT3O1r-86" value="" style="endArrow=none;html=1;rounded=0;entryX=0;entryY=0.25;entryDx=0;entryDy=0;" edge="1" parent="1" source="k-hW8yHvfsRMofxT3O1r-83" target="k-hW8yHvfsRMofxT3O1r-58">
          <mxGeometry width="50" height="50" relative="1" as="geometry">
            <mxPoint x="-90" y="220" as="sourcePoint" />
            <mxPoint x="-40" y="170" as="targetPoint" />
          </mxGeometry>
        </mxCell>
        <mxCell id="k-hW8yHvfsRMofxT3O1r-87" value="" style="endArrow=none;html=1;rounded=0;exitX=0.989;exitY=0.75;exitDx=0;exitDy=0;exitPerimeter=0;" edge="1" parent="1" source="k-hW8yHvfsRMofxT3O1r-84">
          <mxGeometry width="50" height="50" relative="1" as="geometry">
            <mxPoint x="-180" y="189" as="sourcePoint" />
            <mxPoint x="-160" y="220" as="targetPoint" />
          </mxGeometry>
        </mxCell>
        <mxCell id="k-hW8yHvfsRMofxT3O1r-88" value="" style="endArrow=none;html=1;rounded=0;exitX=1;exitY=0.5;exitDx=0;exitDy=0;" edge="1" parent="1" source="k-hW8yHvfsRMofxT3O1r-85">
          <mxGeometry width="50" height="50" relative="1" as="geometry">
            <mxPoint x="-170" y="199" as="sourcePoint" />
            <mxPoint x="-160" y="240" as="targetPoint" />
          </mxGeometry>
        </mxCell>
        <mxCell id="k-hW8yHvfsRMofxT3O1r-89" value="Attendance" style="rounded=0;whiteSpace=wrap;html=1;" vertex="1" parent="1">
          <mxGeometry x="660" y="70" width="120" height="60" as="geometry" />
        </mxCell>
        <mxCell id="k-hW8yHvfsRMofxT3O1r-90" value="Payment" style="rounded=0;whiteSpace=wrap;html=1;" vertex="1" parent="1">
          <mxGeometry x="395" y="40" width="120" height="60" as="geometry" />
        </mxCell>
        <mxCell id="k-hW8yHvfsRMofxT3O1r-91" value="mark" style="rhombus;whiteSpace=wrap;html=1;" vertex="1" parent="1">
          <mxGeometry x="550" y="190" width="80" height="80" as="geometry" />
        </mxCell>
        <mxCell id="k-hW8yHvfsRMofxT3O1r-92" value="" style="endArrow=none;html=1;rounded=0;exitX=1;exitY=0.5;exitDx=0;exitDy=0;entryX=1;entryY=0.5;entryDx=0;entryDy=0;" edge="1" parent="1" source="k-hW8yHvfsRMofxT3O1r-24" target="k-hW8yHvfsRMofxT3O1r-91">
          <mxGeometry width="50" height="50" relative="1" as="geometry">
            <mxPoint x="420" y="330" as="sourcePoint" />
            <mxPoint x="470" y="280" as="targetPoint" />
            <Array as="points">
              <mxPoint x="710" y="580" />
              <mxPoint x="710" y="230" />
            </Array>
          </mxGeometry>
        </mxCell>
        <mxCell id="k-hW8yHvfsRMofxT3O1r-93" value="" style="endArrow=none;html=1;rounded=0;entryX=0;entryY=0.5;entryDx=0;entryDy=0;exitX=0.5;exitY=0;exitDx=0;exitDy=0;" edge="1" parent="1" source="k-hW8yHvfsRMofxT3O1r-91" target="k-hW8yHvfsRMofxT3O1r-89">
          <mxGeometry width="50" height="50" relative="1" as="geometry">
            <mxPoint x="420" y="330" as="sourcePoint" />
            <mxPoint x="470" y="280" as="targetPoint" />
            <Array as="points">
              <mxPoint x="590" y="100" />
            </Array>
          </mxGeometry>
        </mxCell>
        <mxCell id="k-hW8yHvfsRMofxT3O1r-95" value="attendance_id" style="ellipse;whiteSpace=wrap;html=1;" vertex="1" parent="1">
          <mxGeometry x="640" y="-30" width="90" height="40" as="geometry" />
        </mxCell>
        <mxCell id="k-hW8yHvfsRMofxT3O1r-97" value="student_id" style="ellipse;whiteSpace=wrap;html=1;" vertex="1" parent="1">
          <mxGeometry x="730" y="-30" width="90" height="40" as="geometry" />
        </mxCell>
        <mxCell id="k-hW8yHvfsRMofxT3O1r-98" value="grade_subject_id" style="ellipse;whiteSpace=wrap;html=1;" vertex="1" parent="1">
          <mxGeometry x="820" y="-20" width="110" height="40" as="geometry" />
        </mxCell>
        <mxCell id="k-hW8yHvfsRMofxT3O1r-99" value="attendance_date" style="ellipse;whiteSpace=wrap;html=1;" vertex="1" parent="1">
          <mxGeometry x="825" y="30" width="100" height="40" as="geometry" />
        </mxCell>
        <mxCell id="k-hW8yHvfsRMofxT3O1r-100" value="status" style="ellipse;whiteSpace=wrap;html=1;" vertex="1" parent="1">
          <mxGeometry x="840" y="80" width="90" height="40" as="geometry" />
        </mxCell>
        <mxCell id="k-hW8yHvfsRMofxT3O1r-103" value="reason" style="ellipse;whiteSpace=wrap;html=1;" vertex="1" parent="1">
          <mxGeometry x="840" y="130" width="90" height="40" as="geometry" />
        </mxCell>
        <mxCell id="k-hW8yHvfsRMofxT3O1r-104" value="marked_by" style="ellipse;whiteSpace=wrap;html=1;" vertex="1" parent="1">
          <mxGeometry x="840" y="180" width="90" height="40" as="geometry" />
        </mxCell>
        <mxCell id="k-hW8yHvfsRMofxT3O1r-105" value="" style="endArrow=none;html=1;rounded=0;entryX=0.378;entryY=0.9;entryDx=0;entryDy=0;entryPerimeter=0;" edge="1" parent="1" target="k-hW8yHvfsRMofxT3O1r-95">
          <mxGeometry width="50" height="50" relative="1" as="geometry">
            <mxPoint x="690" y="70" as="sourcePoint" />
            <mxPoint x="730" y="20" as="targetPoint" />
          </mxGeometry>
        </mxCell>
        <mxCell id="k-hW8yHvfsRMofxT3O1r-107" value="" style="endArrow=none;html=1;rounded=0;entryX=0;entryY=1;entryDx=0;entryDy=0;exitX=0.5;exitY=0;exitDx=0;exitDy=0;" edge="1" parent="1" source="k-hW8yHvfsRMofxT3O1r-89" target="k-hW8yHvfsRMofxT3O1r-97">
          <mxGeometry width="50" height="50" relative="1" as="geometry">
            <mxPoint x="700" y="80" as="sourcePoint" />
            <mxPoint x="704" y="-14" as="targetPoint" />
          </mxGeometry>
        </mxCell>
        <mxCell id="k-hW8yHvfsRMofxT3O1r-108" value="" style="endArrow=none;html=1;rounded=0;entryX=0;entryY=0.5;entryDx=0;entryDy=0;exitX=0.675;exitY=0.017;exitDx=0;exitDy=0;exitPerimeter=0;" edge="1" parent="1" source="k-hW8yHvfsRMofxT3O1r-89" target="k-hW8yHvfsRMofxT3O1r-98">
          <mxGeometry width="50" height="50" relative="1" as="geometry">
            <mxPoint x="710" y="90" as="sourcePoint" />
            <mxPoint x="714" y="-4" as="targetPoint" />
          </mxGeometry>
        </mxCell>
        <mxCell id="k-hW8yHvfsRMofxT3O1r-109" value="" style="endArrow=none;html=1;rounded=0;entryX=0;entryY=0.5;entryDx=0;entryDy=0;exitX=1;exitY=0;exitDx=0;exitDy=0;" edge="1" parent="1" source="k-hW8yHvfsRMofxT3O1r-89" target="k-hW8yHvfsRMofxT3O1r-99">
          <mxGeometry width="50" height="50" relative="1" as="geometry">
            <mxPoint x="720" y="100" as="sourcePoint" />
            <mxPoint x="724" y="6" as="targetPoint" />
          </mxGeometry>
        </mxCell>
        <mxCell id="k-hW8yHvfsRMofxT3O1r-110" value="" style="endArrow=none;html=1;rounded=0;entryX=0;entryY=0.5;entryDx=0;entryDy=0;" edge="1" parent="1" target="k-hW8yHvfsRMofxT3O1r-100">
          <mxGeometry width="50" height="50" relative="1" as="geometry">
            <mxPoint x="780" y="100" as="sourcePoint" />
            <mxPoint x="734" y="16" as="targetPoint" />
          </mxGeometry>
        </mxCell>
        <mxCell id="k-hW8yHvfsRMofxT3O1r-111" value="" style="endArrow=none;html=1;rounded=0;exitX=1;exitY=0.75;exitDx=0;exitDy=0;" edge="1" parent="1" source="k-hW8yHvfsRMofxT3O1r-89" target="k-hW8yHvfsRMofxT3O1r-103">
          <mxGeometry width="50" height="50" relative="1" as="geometry">
            <mxPoint x="740" y="120" as="sourcePoint" />
            <mxPoint x="744" y="26" as="targetPoint" />
          </mxGeometry>
        </mxCell>
        <mxCell id="k-hW8yHvfsRMofxT3O1r-112" value="" style="endArrow=none;html=1;rounded=0;entryX=0.067;entryY=0.175;entryDx=0;entryDy=0;entryPerimeter=0;exitX=1;exitY=1;exitDx=0;exitDy=0;" edge="1" parent="1" source="k-hW8yHvfsRMofxT3O1r-89" target="k-hW8yHvfsRMofxT3O1r-104">
          <mxGeometry width="50" height="50" relative="1" as="geometry">
            <mxPoint x="750" y="130" as="sourcePoint" />
            <mxPoint x="754" y="36" as="targetPoint" />
          </mxGeometry>
        </mxCell>
        <mxCell id="k-hW8yHvfsRMofxT3O1r-114" value="payment_id" style="ellipse;whiteSpace=wrap;html=1;" vertex="1" parent="1">
          <mxGeometry x="260" y="-10" width="90" height="40" as="geometry" />
        </mxCell>
        <mxCell id="k-hW8yHvfsRMofxT3O1r-115" value="date" style="ellipse;whiteSpace=wrap;html=1;" vertex="1" parent="1">
          <mxGeometry x="300" y="-50" width="90" height="40" as="geometry" />
        </mxCell>
        <mxCell id="k-hW8yHvfsRMofxT3O1r-116" value="amount" style="ellipse;whiteSpace=wrap;html=1;" vertex="1" parent="1">
          <mxGeometry x="340" y="-90" width="90" height="40" as="geometry" />
        </mxCell>
        <mxCell id="k-hW8yHvfsRMofxT3O1r-117" value="student_id" style="ellipse;whiteSpace=wrap;html=1;" vertex="1" parent="1">
          <mxGeometry x="425" y="-110" width="90" height="40" as="geometry" />
        </mxCell>
        <mxCell id="k-hW8yHvfsRMofxT3O1r-118" value="subject_id" style="ellipse;whiteSpace=wrap;html=1;" vertex="1" parent="1">
          <mxGeometry x="490" y="-70" width="90" height="40" as="geometry" />
        </mxCell>
        <mxCell id="k-hW8yHvfsRMofxT3O1r-119" style="edgeStyle=orthogonalEdgeStyle;rounded=0;orthogonalLoop=1;jettySize=auto;html=1;exitX=0.5;exitY=1;exitDx=0;exitDy=0;" edge="1" parent="1" source="k-hW8yHvfsRMofxT3O1r-116" target="k-hW8yHvfsRMofxT3O1r-116">
          <mxGeometry relative="1" as="geometry" />
        </mxCell>
        <mxCell id="k-hW8yHvfsRMofxT3O1r-120" value="status" style="ellipse;whiteSpace=wrap;html=1;" vertex="1" parent="1">
          <mxGeometry x="530" y="-30" width="90" height="40" as="geometry" />
        </mxCell>
        <mxCell id="k-hW8yHvfsRMofxT3O1r-121" value="" style="endArrow=none;html=1;rounded=0;entryX=1;entryY=1;entryDx=0;entryDy=0;exitX=0;exitY=0;exitDx=0;exitDy=0;" edge="1" parent="1" source="k-hW8yHvfsRMofxT3O1r-90" target="k-hW8yHvfsRMofxT3O1r-114">
          <mxGeometry width="50" height="50" relative="1" as="geometry">
            <mxPoint x="430" y="10" as="sourcePoint" />
            <mxPoint x="480" y="-40" as="targetPoint" />
          </mxGeometry>
        </mxCell>
        <mxCell id="k-hW8yHvfsRMofxT3O1r-123" value="" style="endArrow=none;html=1;rounded=0;entryX=1;entryY=1;entryDx=0;entryDy=0;exitX=0.125;exitY=0;exitDx=0;exitDy=0;exitPerimeter=0;" edge="1" parent="1" source="k-hW8yHvfsRMofxT3O1r-90" target="k-hW8yHvfsRMofxT3O1r-115">
          <mxGeometry width="50" height="50" relative="1" as="geometry">
            <mxPoint x="405" y="50" as="sourcePoint" />
            <mxPoint x="337" y="4" as="targetPoint" />
          </mxGeometry>
        </mxCell>
        <mxCell id="k-hW8yHvfsRMofxT3O1r-124" value="" style="endArrow=none;html=1;rounded=0;entryX=0.5;entryY=1;entryDx=0;entryDy=0;exitX=0.25;exitY=0;exitDx=0;exitDy=0;" edge="1" parent="1" source="k-hW8yHvfsRMofxT3O1r-90" target="k-hW8yHvfsRMofxT3O1r-116">
          <mxGeometry width="50" height="50" relative="1" as="geometry">
            <mxPoint x="415" y="60" as="sourcePoint" />
            <mxPoint x="347" y="14" as="targetPoint" />
          </mxGeometry>
        </mxCell>
        <mxCell id="k-hW8yHvfsRMofxT3O1r-125" value="" style="endArrow=none;html=1;rounded=0;entryX=0.5;entryY=1;entryDx=0;entryDy=0;" edge="1" parent="1" target="k-hW8yHvfsRMofxT3O1r-117">
          <mxGeometry width="50" height="50" relative="1" as="geometry">
            <mxPoint x="440" y="40" as="sourcePoint" />
            <mxPoint x="395" y="-40" as="targetPoint" />
          </mxGeometry>
        </mxCell>
        <mxCell id="k-hW8yHvfsRMofxT3O1r-126" value="" style="endArrow=none;html=1;rounded=0;entryX=0;entryY=1;entryDx=0;entryDy=0;exitX=0.592;exitY=0;exitDx=0;exitDy=0;exitPerimeter=0;" edge="1" parent="1" source="k-hW8yHvfsRMofxT3O1r-90" target="k-hW8yHvfsRMofxT3O1r-118">
          <mxGeometry width="50" height="50" relative="1" as="geometry">
            <mxPoint x="445" y="60" as="sourcePoint" />
            <mxPoint x="405" y="-30" as="targetPoint" />
          </mxGeometry>
        </mxCell>
        <mxCell id="k-hW8yHvfsRMofxT3O1r-127" value="" style="endArrow=none;html=1;rounded=0;entryX=0;entryY=0.5;entryDx=0;entryDy=0;exitX=0.75;exitY=0;exitDx=0;exitDy=0;" edge="1" parent="1" source="k-hW8yHvfsRMofxT3O1r-90" target="k-hW8yHvfsRMofxT3O1r-120">
          <mxGeometry width="50" height="50" relative="1" as="geometry">
            <mxPoint x="455" y="70" as="sourcePoint" />
            <mxPoint x="415" y="-20" as="targetPoint" />
          </mxGeometry>
        </mxCell>
        <mxCell id="k-hW8yHvfsRMofxT3O1r-129" value="mark" style="rhombus;whiteSpace=wrap;html=1;" vertex="1" parent="1">
          <mxGeometry x="425" y="160" width="80" height="80" as="geometry" />
        </mxCell>
        <mxCell id="k-hW8yHvfsRMofxT3O1r-130" value="" style="endArrow=none;html=1;rounded=0;entryX=0.5;entryY=1;entryDx=0;entryDy=0;exitX=1;exitY=0;exitDx=0;exitDy=0;" edge="1" parent="1" source="k-hW8yHvfsRMofxT3O1r-24" target="k-hW8yHvfsRMofxT3O1r-129">
          <mxGeometry width="50" height="50" relative="1" as="geometry">
            <mxPoint x="460" y="430" as="sourcePoint" />
            <mxPoint x="510" y="380" as="targetPoint" />
            <Array as="points">
              <mxPoint x="580" y="390" />
            </Array>
          </mxGeometry>
        </mxCell>
        <mxCell id="k-hW8yHvfsRMofxT3O1r-131" value="" style="endArrow=none;html=1;rounded=0;exitX=0.5;exitY=0;exitDx=0;exitDy=0;entryX=0.5;entryY=1;entryDx=0;entryDy=0;" edge="1" parent="1" source="k-hW8yHvfsRMofxT3O1r-129" target="k-hW8yHvfsRMofxT3O1r-90">
          <mxGeometry width="50" height="50" relative="1" as="geometry">
            <mxPoint x="370" y="120" as="sourcePoint" />
            <mxPoint x="420" y="70" as="targetPoint" />
          </mxGeometry>
        </mxCell>
        <mxCell id="k-hW8yHvfsRMofxT3O1r-132" value="view" style="rhombus;whiteSpace=wrap;html=1;" vertex="1" parent="1">
          <mxGeometry x="770" y="320" width="100" height="80" as="geometry" />
        </mxCell>
        <mxCell id="k-hW8yHvfsRMofxT3O1r-133" value="" style="endArrow=none;html=1;rounded=0;exitX=0.5;exitY=0;exitDx=0;exitDy=0;entryX=0;entryY=0.5;entryDx=0;entryDy=0;" edge="1" parent="1" source="k-hW8yHvfsRMofxT3O1r-23" target="k-hW8yHvfsRMofxT3O1r-132">
          <mxGeometry width="50" height="50" relative="1" as="geometry">
            <mxPoint x="530" y="300" as="sourcePoint" />
            <mxPoint x="580" y="250" as="targetPoint" />
            <Array as="points">
              <mxPoint x="310" y="360" />
            </Array>
          </mxGeometry>
        </mxCell>
        <mxCell id="k-hW8yHvfsRMofxT3O1r-135" value="" style="endArrow=none;html=1;rounded=0;entryX=0.5;entryY=1;entryDx=0;entryDy=0;exitX=0.5;exitY=0;exitDx=0;exitDy=0;" edge="1" parent="1" source="k-hW8yHvfsRMofxT3O1r-132" target="k-hW8yHvfsRMofxT3O1r-89">
          <mxGeometry width="50" height="50" relative="1" as="geometry">
            <mxPoint x="530" y="300" as="sourcePoint" />
            <mxPoint x="580" y="250" as="targetPoint" />
          </mxGeometry>
        </mxCell>
        <mxCell id="k-hW8yHvfsRMofxT3O1r-137" value="report_type&lt;span style=&quot;color: rgba(0, 0, 0, 0); font-family: monospace; font-size: 0px; text-align: start; text-wrap-mode: nowrap;&quot;&gt;%3CmxGraphModel%3E%3Croot%3E%3CmxCell%20id%3D%220%22%2F%3E%3CmxCell%20id%3D%221%22%20parent%3D%220%22%2F%3E%3CmxCell%20id%3D%222%22%20value%3D%22grade_name%22%20style%3D%22ellipse%3BwhiteSpace%3Dwrap%3Bhtml%3D1%3B%22%20vertex%3D%221%22%20parent%3D%221%22%3E%3CmxGeometry%20x%3D%22-310%22%20y%3D%22350%22%20width%3D%2290%22%20height%3D%2240%22%20as%3D%22geometry%22%2F%3E%3C%2FmxCell%3E%3C%2Froot%3E%3C%2FmxGraphModel%3E&lt;/span&gt;" style="ellipse;whiteSpace=wrap;html=1;" vertex="1" parent="1">
          <mxGeometry x="-300" y="250" width="90" height="40" as="geometry" />
        </mxCell>
        <mxCell id="k-hW8yHvfsRMofxT3O1r-138" value="" style="endArrow=none;html=1;rounded=0;exitX=1;exitY=0.5;exitDx=0;exitDy=0;entryX=0;entryY=1;entryDx=0;entryDy=0;" edge="1" parent="1" source="k-hW8yHvfsRMofxT3O1r-137" target="k-hW8yHvfsRMofxT3O1r-58">
          <mxGeometry width="50" height="50" relative="1" as="geometry">
            <mxPoint x="-20" y="300" as="sourcePoint" />
            <mxPoint x="30" y="250" as="targetPoint" />
          </mxGeometry>
        </mxCell>
        <mxCell id="k-hW8yHvfsRMofxT3O1r-139" value="Grade_Subject" style="rounded=0;whiteSpace=wrap;html=1;" vertex="1" parent="1">
          <mxGeometry x="-80" y="-30" width="120" height="60" as="geometry" />
        </mxCell>
        <mxCell id="k-hW8yHvfsRMofxT3O1r-140" value="grade_subject_id" style="ellipse;whiteSpace=wrap;html=1;" vertex="1" parent="1">
          <mxGeometry x="-180" y="-100" width="110" height="40" as="geometry" />
        </mxCell>
        <mxCell id="k-hW8yHvfsRMofxT3O1r-141" value="grade_id" style="ellipse;whiteSpace=wrap;html=1;" vertex="1" parent="1">
          <mxGeometry x="-260" y="-70" width="90" height="40" as="geometry" />
        </mxCell>
        <mxCell id="k-hW8yHvfsRMofxT3O1r-142" value="subject_id" style="ellipse;whiteSpace=wrap;html=1;" vertex="1" parent="1">
          <mxGeometry x="-260" y="-20" width="90" height="40" as="geometry" />
        </mxCell>
        <mxCell id="k-hW8yHvfsRMofxT3O1r-143" value="teacher_id&amp;nbsp;" style="ellipse;whiteSpace=wrap;html=1;" vertex="1" parent="1">
          <mxGeometry x="-220" y="30" width="90" height="40" as="geometry" />
        </mxCell>
        <mxCell id="k-hW8yHvfsRMofxT3O1r-144" value="" style="endArrow=none;html=1;rounded=0;exitX=1;exitY=1;exitDx=0;exitDy=0;entryX=0.25;entryY=0;entryDx=0;entryDy=0;" edge="1" parent="1" source="k-hW8yHvfsRMofxT3O1r-140" target="k-hW8yHvfsRMofxT3O1r-139">
          <mxGeometry width="50" height="50" relative="1" as="geometry">
            <mxPoint x="60" y="120" as="sourcePoint" />
            <mxPoint x="110" y="70" as="targetPoint" />
          </mxGeometry>
        </mxCell>
        <mxCell id="k-hW8yHvfsRMofxT3O1r-145" value="" style="endArrow=none;html=1;rounded=0;exitX=1;exitY=0.5;exitDx=0;exitDy=0;entryX=0;entryY=0.25;entryDx=0;entryDy=0;" edge="1" parent="1" source="k-hW8yHvfsRMofxT3O1r-141" target="k-hW8yHvfsRMofxT3O1r-139">
          <mxGeometry width="50" height="50" relative="1" as="geometry">
            <mxPoint x="-76" y="-56" as="sourcePoint" />
            <mxPoint x="-40" y="-20" as="targetPoint" />
          </mxGeometry>
        </mxCell>
        <mxCell id="k-hW8yHvfsRMofxT3O1r-146" value="" style="endArrow=none;html=1;rounded=0;exitX=1;exitY=0.5;exitDx=0;exitDy=0;entryX=0;entryY=0.5;entryDx=0;entryDy=0;" edge="1" parent="1" source="k-hW8yHvfsRMofxT3O1r-142" target="k-hW8yHvfsRMofxT3O1r-139">
          <mxGeometry width="50" height="50" relative="1" as="geometry">
            <mxPoint x="-76" y="-56" as="sourcePoint" />
            <mxPoint x="-40" y="-20" as="targetPoint" />
          </mxGeometry>
        </mxCell>
        <mxCell id="k-hW8yHvfsRMofxT3O1r-147" value="" style="endArrow=none;html=1;rounded=0;entryX=0;entryY=0.75;entryDx=0;entryDy=0;" edge="1" parent="1" source="k-hW8yHvfsRMofxT3O1r-143" target="k-hW8yHvfsRMofxT3O1r-139">
          <mxGeometry width="50" height="50" relative="1" as="geometry">
            <mxPoint x="-66" y="-46" as="sourcePoint" />
            <mxPoint x="-30" y="-10" as="targetPoint" />
          </mxGeometry>
        </mxCell>
        <mxCell id="k-hW8yHvfsRMofxT3O1r-148" value="assign" style="rhombus;whiteSpace=wrap;html=1;" vertex="1" parent="1">
          <mxGeometry x="90" y="-40" width="100" height="80" as="geometry" />
        </mxCell>
        <mxCell id="k-hW8yHvfsRMofxT3O1r-149" value="" style="endArrow=none;html=1;rounded=0;exitX=1;exitY=0.5;exitDx=0;exitDy=0;entryX=0;entryY=0.5;entryDx=0;entryDy=0;" edge="1" parent="1" source="k-hW8yHvfsRMofxT3O1r-139" target="k-hW8yHvfsRMofxT3O1r-148">
          <mxGeometry width="50" height="50" relative="1" as="geometry">
            <mxPoint x="250" y="320" as="sourcePoint" />
            <mxPoint x="300" y="270" as="targetPoint" />
          </mxGeometry>
        </mxCell>
        <mxCell id="k-hW8yHvfsRMofxT3O1r-150" value="" style="endArrow=none;html=1;rounded=0;entryX=1;entryY=0.5;entryDx=0;entryDy=0;exitX=0.25;exitY=0;exitDx=0;exitDy=0;" edge="1" parent="1" source="k-hW8yHvfsRMofxT3O1r-23" target="k-hW8yHvfsRMofxT3O1r-148">
          <mxGeometry width="50" height="50" relative="1" as="geometry">
            <mxPoint x="250" y="320" as="sourcePoint" />
            <mxPoint x="300" y="270" as="targetPoint" />
            <Array as="points">
              <mxPoint x="230" />
            </Array>
          </mxGeometry>
        </mxCell>
        <mxCell id="k-hW8yHvfsRMofxT3O1r-153" value="" style="endArrow=none;html=1;rounded=0;exitX=0.5;exitY=1;exitDx=0;exitDy=0;entryX=0.5;entryY=0;entryDx=0;entryDy=0;" edge="1" parent="1" source="k-hW8yHvfsRMofxT3O1r-22" target="k-hW8yHvfsRMofxT3O1r-26">
          <mxGeometry width="50" height="50" relative="1" as="geometry">
            <mxPoint x="630" y="590" as="sourcePoint" />
            <mxPoint x="680" y="540" as="targetPoint" />
          </mxGeometry>
        </mxCell>
        <mxCell id="k-hW8yHvfsRMofxT3O1r-154" value="1" style="text;html=1;align=center;verticalAlign=middle;whiteSpace=wrap;rounded=0;" vertex="1" parent="1">
          <mxGeometry x="95" y="610" width="60" height="30" as="geometry" />
        </mxCell>
        <mxCell id="k-hW8yHvfsRMofxT3O1r-155" value="M" style="text;html=1;align=center;verticalAlign=middle;whiteSpace=wrap;rounded=0;" vertex="1" parent="1">
          <mxGeometry x="290" y="745" width="60" height="30" as="geometry" />
        </mxCell>
        <mxCell id="k-hW8yHvfsRMofxT3O1r-156" value="1" style="text;html=1;align=center;verticalAlign=middle;whiteSpace=wrap;rounded=0;" vertex="1" parent="1">
          <mxGeometry x="40" y="550" width="60" height="30" as="geometry" />
        </mxCell>
        <mxCell id="k-hW8yHvfsRMofxT3O1r-157" value="M" style="text;html=1;align=center;verticalAlign=middle;whiteSpace=wrap;rounded=0;" vertex="1" parent="1">
          <mxGeometry x="-120" y="480" width="60" height="30" as="geometry" />
        </mxCell>
        <mxCell id="k-hW8yHvfsRMofxT3O1r-158" value="M" style="text;html=1;align=center;verticalAlign=middle;whiteSpace=wrap;rounded=0;" vertex="1" parent="1">
          <mxGeometry x="-50" y="345" width="60" height="30" as="geometry" />
        </mxCell>
        <mxCell id="k-hW8yHvfsRMofxT3O1r-161" value="1" style="text;html=1;align=center;verticalAlign=middle;whiteSpace=wrap;rounded=0;" vertex="1" parent="1">
          <mxGeometry x="95" y="520" width="60" height="30" as="geometry" />
        </mxCell>
        <mxCell id="k-hW8yHvfsRMofxT3O1r-162" value="1" style="text;html=1;align=center;verticalAlign=middle;whiteSpace=wrap;rounded=0;" vertex="1" parent="1">
          <mxGeometry x="143" y="520" width="60" height="30" as="geometry" />
        </mxCell>
        <mxCell id="k-hW8yHvfsRMofxT3O1r-163" value="M" style="text;html=1;align=center;verticalAlign=middle;whiteSpace=wrap;rounded=0;" vertex="1" parent="1">
          <mxGeometry x="-50" y="200" width="60" height="30" as="geometry" />
        </mxCell>
        <mxCell id="k-hW8yHvfsRMofxT3O1r-164" value="1" style="text;html=1;align=center;verticalAlign=middle;whiteSpace=wrap;rounded=0;" vertex="1" parent="1">
          <mxGeometry x="30" y="-30" width="60" height="30" as="geometry" />
        </mxCell>
        <mxCell id="k-hW8yHvfsRMofxT3O1r-165" value="1" style="text;html=1;align=center;verticalAlign=middle;whiteSpace=wrap;rounded=0;" vertex="1" parent="1">
          <mxGeometry x="270" y="512" width="60" height="30" as="geometry" />
        </mxCell>
        <mxCell id="k-hW8yHvfsRMofxT3O1r-166" value="" style="endArrow=none;html=1;rounded=0;entryX=1;entryY=1;entryDx=0;entryDy=0;exitX=0.5;exitY=0;exitDx=0;exitDy=0;" edge="1" parent="1" source="k-hW8yHvfsRMofxT3O1r-66" target="k-hW8yHvfsRMofxT3O1r-139">
          <mxGeometry width="50" height="50" relative="1" as="geometry">
            <mxPoint x="470" y="410" as="sourcePoint" />
            <mxPoint x="250" y="260" as="targetPoint" />
            <Array as="points">
              <mxPoint x="280" y="100" />
            </Array>
          </mxGeometry>
        </mxCell>
        <mxCell id="k-hW8yHvfsRMofxT3O1r-167" value="M" style="text;html=1;align=center;verticalAlign=middle;whiteSpace=wrap;rounded=0;" vertex="1" parent="1">
          <mxGeometry x="677" y="130" width="60" height="30" as="geometry" />
        </mxCell>
        <mxCell id="k-hW8yHvfsRMofxT3O1r-168" value="1" style="text;html=1;align=center;verticalAlign=middle;whiteSpace=wrap;rounded=0;" vertex="1" parent="1">
          <mxGeometry x="400" y="520" width="60" height="30" as="geometry" />
        </mxCell>
        <mxCell id="k-hW8yHvfsRMofxT3O1r-169" value="1" style="text;html=1;align=center;verticalAlign=middle;whiteSpace=wrap;rounded=0;" vertex="1" parent="1">
          <mxGeometry x="-116" y="170" width="60" height="30" as="geometry" />
        </mxCell>
        <mxCell id="k-hW8yHvfsRMofxT3O1r-170" value="1" style="text;html=1;align=center;verticalAlign=middle;whiteSpace=wrap;rounded=0;" vertex="1" parent="1">
          <mxGeometry x="480" y="520" width="60" height="30" as="geometry" />
        </mxCell>
        <mxCell id="k-hW8yHvfsRMofxT3O1r-171" value="M" style="text;html=1;align=center;verticalAlign=middle;whiteSpace=wrap;rounded=0;" vertex="1" parent="1">
          <mxGeometry x="20" width="60" height="30" as="geometry" />
        </mxCell>
        <mxCell id="k-hW8yHvfsRMofxT3O1r-172" value="M" style="text;html=1;align=center;verticalAlign=middle;whiteSpace=wrap;rounded=0;" vertex="1" parent="1">
          <mxGeometry x="610" y="105" width="60" height="30" as="geometry" />
        </mxCell>
        <mxCell id="k-hW8yHvfsRMofxT3O1r-173" value="1" style="text;html=1;align=center;verticalAlign=middle;whiteSpace=wrap;rounded=0;" vertex="1" parent="1">
          <mxGeometry x="530" y="580" width="60" height="30" as="geometry" />
        </mxCell>
        <mxCell id="k-hW8yHvfsRMofxT3O1r-174" value="M" style="text;html=1;align=center;verticalAlign=middle;whiteSpace=wrap;rounded=0;" vertex="1" parent="1">
          <mxGeometry x="445" y="105" width="60" height="30" as="geometry" />
        </mxCell>
        <mxCell id="k-hW8yHvfsRMofxT3O1r-175" value="1" style="text;html=1;align=center;verticalAlign=middle;whiteSpace=wrap;rounded=0;" vertex="1" parent="1">
          <mxGeometry x="530" y="530" width="60" height="30" as="geometry" />
        </mxCell>
        <mxCell id="k-hW8yHvfsRMofxT3O1r-176" value="Student" style="rounded=0;whiteSpace=wrap;html=1;" vertex="1" parent="1">
          <mxGeometry x="760" y="560" width="100" height="60" as="geometry" />
        </mxCell>
        <mxCell id="k-hW8yHvfsRMofxT3O1r-177" value="view" style="rhombus;whiteSpace=wrap;html=1;" vertex="1" parent="1">
          <mxGeometry x="760" y="440" width="100" height="80" as="geometry" />
        </mxCell>
        <mxCell id="k-hW8yHvfsRMofxT3O1r-178" value="" style="endArrow=none;html=1;rounded=0;entryX=0.5;entryY=1;entryDx=0;entryDy=0;exitX=0.5;exitY=0;exitDx=0;exitDy=0;" edge="1" parent="1" source="k-hW8yHvfsRMofxT3O1r-176" target="k-hW8yHvfsRMofxT3O1r-177">
          <mxGeometry width="50" height="50" relative="1" as="geometry">
            <mxPoint x="700" y="450" as="sourcePoint" />
            <mxPoint x="750" y="400" as="targetPoint" />
          </mxGeometry>
        </mxCell>
        <mxCell id="k-hW8yHvfsRMofxT3O1r-179" value="" style="endArrow=none;html=1;rounded=0;entryX=0.5;entryY=0;entryDx=0;entryDy=0;exitX=0;exitY=0.5;exitDx=0;exitDy=0;" edge="1" parent="1" source="k-hW8yHvfsRMofxT3O1r-90" target="k-hW8yHvfsRMofxT3O1r-177">
          <mxGeometry width="50" height="50" relative="1" as="geometry">
            <mxPoint x="700" y="450" as="sourcePoint" />
            <mxPoint x="750" y="400" as="targetPoint" />
            <Array as="points">
              <mxPoint x="350" y="70" />
              <mxPoint x="400" y="240" />
            </Array>
          </mxGeometry>
        </mxCell>
        <mxCell id="k-hW8yHvfsRMofxT3O1r-180" value="1" style="text;html=1;align=center;verticalAlign=middle;whiteSpace=wrap;rounded=0;" vertex="1" parent="1">
          <mxGeometry x="350" y="70" width="60" height="30" as="geometry" />
        </mxCell>
        <mxCell id="k-hW8yHvfsRMofxT3O1r-181" value="M" style="text;html=1;align=center;verticalAlign=middle;whiteSpace=wrap;rounded=0;" vertex="1" parent="1">
          <mxGeometry x="800" y="530" width="60" height="30" as="geometry" />
        </mxCell>
      </root>
    </mxGraphModel>
  </diagram>
</mxfile>
